<svg width="30" height="30" viewBox="0 0 30 30" fill="none" xmlns="http://www.w3.org/2000/svg">
<g id="lucide/land-plot">
<path id="Vector" d="M15 10L22.5 6.25L15 2.5V15M10 14.9875L3.12502 18.9125C2.93265 19.0215 2.77264 19.1796 2.66131 19.3707C2.54999 19.5617 2.49133 19.7789 2.49133 20C2.49133 20.2211 2.54999 20.4383 2.66131 20.6293C2.77264 20.8204 2.93265 20.9785 3.12502 21.0875L13.75 27.1625C14.1301 27.3819 14.5612 27.4974 15 27.4974C15.4389 27.4974 15.87 27.3819 16.25 27.1625L26.875 21.0875C27.0674 20.9785 27.2274 20.8204 27.3387 20.6293C27.4501 20.4383 27.5087 20.2211 27.5087 20C27.5087 19.7789 27.4501 19.5617 27.3387 19.3707C27.2274 19.1796 27.0674 19.0215 26.875 18.9125L20 15M8.11252 16.0625L21.8875 23.9375M21.8875 16.0625L8.12502 23.9375" stroke="#5C3507" stroke-width="2" stroke-linecap="round" stroke-linejoin="round"/>
</g>
</svg>
