<svg width="130" height="130" viewBox="0 0 130 130" fill="none" xmlns="http://www.w3.org/2000/svg">
<g id="lucide/map-pin">
<g id="Vector">
<path d="M108.333 54.1666C108.333 81.212 78.3304 109.379 68.2554 118.078C67.3169 118.784 66.1743 119.165 65 119.165C63.8257 119.165 62.6832 118.784 61.7446 118.078C51.6696 109.379 21.6667 81.212 21.6667 54.1666C21.6667 42.6739 26.2322 31.6519 34.3587 23.5253C42.4853 15.3987 53.5073 10.8333 65 10.8333C76.4927 10.8333 87.5147 15.3987 95.6413 23.5253C103.768 31.6519 108.333 42.6739 108.333 54.1666Z" stroke="#5C3507" stroke-width="2" stroke-linecap="round" stroke-linejoin="round"/>
<path d="M65 70.4166C73.9746 70.4166 81.25 63.1412 81.25 54.1666C81.25 45.192 73.9746 37.9166 65 37.9166C56.0254 37.9166 48.75 45.192 48.75 54.1666C48.75 63.1412 56.0254 70.4166 65 70.4166Z" stroke="#5C3507" stroke-width="2" stroke-linecap="round" stroke-linejoin="round"/>
</g>
</g>
</svg>
