<svg width="24" height="24" viewBox="0 0 24 24" fill="none" xmlns="http://www.w3.org/2000/svg">
<g id="lucide/bomb">
<path id="Vector" d="M14.35 4.65005L16.3 2.70005C16.7516 2.2506 17.3628 1.99829 18 1.99829C18.6372 1.99829 19.2484 2.2506 19.7 2.70005L21.3 4.30005C21.5237 4.52301 21.7013 4.78796 21.8224 5.07968C21.9435 5.37141 22.0059 5.68417 22.0059 6.00005C22.0059 6.31592 21.9435 6.62869 21.8224 6.92041C21.7013 7.21214 21.5237 7.47708 21.3 7.70005L19.35 9.65005M22 2.00005L20.5 3.50005M20 13C20 17.9706 15.9706 22 11 22C6.02944 22 2 17.9706 2 13C2 8.02948 6.02944 4.00005 11 4.00005C15.9706 4.00005 20 8.02948 20 13Z" stroke="#8FA0FF" stroke-width="2" stroke-linecap="round" stroke-linejoin="round"/>
</g>
</svg>
