<svg width="21" height="21" viewBox="0 0 21 21" fill="none" xmlns="http://www.w3.org/2000/svg">
<path id="Vector" d="M2 10L19.2 5.00001L18.4 2.40001C18.1 1.40001 17 0.800014 15.9 1.10001L2.4 5.10001C1.4 5.40001 0.799999 6.50001 1.1 7.60001L2 10ZM2 10H20V18C20 18.5304 19.7893 19.0392 19.4142 19.4142C19.0391 19.7893 18.5304 20 18 20H4C3.46957 20 2.96086 19.7893 2.58579 19.4142C2.21071 19.0392 2 18.5304 2 18V10ZM5.2 4.30001L8.3 8.20001M11.4 2.40001L14.5 6.40001" stroke="#8FA0FF" stroke-width="2" stroke-linecap="round" stroke-linejoin="round"/>
</svg>
