<svg width="22" height="22" viewBox="0 0 22 22" fill="none" xmlns="http://www.w3.org/2000/svg">
<path id="Vector" d="M17 21H3C2.46957 21 1.96086 20.7893 1.58579 20.4142C1.21071 20.0391 1 19.5304 1 19V5M21 12L19.704 10.704C19.252 10.2521 18.6391 9.99825 18 9.99825C17.3609 9.99825 16.748 10.2521 16.296 10.704L10 17M13 7C13 8.10457 12.1046 9 11 9C9.89543 9 9 8.10457 9 7C9 5.89543 9.89543 5 11 5C12.1046 5 13 5.89543 13 7ZM7 1H19C20.1046 1 21 1.89543 21 3V15C21 16.1046 20.1046 17 19 17H7C5.89543 17 5 16.1046 5 15V3C5 1.89543 5.89543 1 7 1Z" stroke="#8FA0FF" stroke-width="2" stroke-linecap="round" stroke-linejoin="round"/>
</svg>
